<?xml version="1.0" encoding="utf-8"?>
<!-- Generator: Adobe Illustrator 26.3.1, SVG Export Plug-In . SVG Version: 6.00 Build 0)  -->
<svg version="1.1" id="Layer_1" xmlns="http://www.w3.org/2000/svg" xmlns:xlink="http://www.w3.org/1999/xlink" x="0px" y="0px"
	 viewBox="0 0 700 700" style="enable-background:new 0 0 700 700;" xml:space="preserve">
	 <style>
        path {
            fill: black;
        }
        @media (prefers-color-scheme: dark) {
            path { fill: white; }
        }
    </style>
<path d="M398.2,84.6c-16.4,0-30.7,9.1-38.5,22.4c-6.9-5.7-15.3-9.5-24.7-10.4c-1.3-0.5-2.6-0.8-4-0.8c-24.6,0-44.8,20.2-44.8,44.8
	V163H275c0-23.2-18.1-41.9-40.8-44c-1.3-0.5-2.6-0.8-4-0.8c-24.6,0-44.8,20.2-44.8,44.8v78.4c0,0.2,0.1,0.4,0.1,0.7
	c0,0.4-0.1,0.8-0.1,1.2V387c0,29.1,14.2,53,33.6,70.9c0.8,32.1,0,97.4,0,119.5c0,3,1.1,5.9,3.2,8c2.1,2.1,5,3.3,8,3.3
	c3,0,5.9-1.2,8-3.3c2.1-2.1,3.3-5,3.2-8c0-22.1,0.9-91.2,0-123.5c-0.1-3.2-1.6-6.3-4.1-8.3c-18-14.8-29.5-34.4-29.5-58.6V279.4
	c5.5,3.2,11.7,5.4,18.4,6c1.3,0.5,2.6,0.8,4,0.8c1.4,0,2.8-0.3,4-0.8c18.8-1.8,34.3-15.1,39.1-32.8h12.9v11.2
	c0,23.2,18.1,41.9,40.8,44c1.3,0.5,2.6,0.8,4,0.8c1.4,0,2.8-0.3,4-0.8c10.3-1,19.5-5.5,26.6-12.1l17.9,13.6
	c-10.9,5.6-21.9,14.5-32.5,26.2c-18,19.9-33.6,48.5-37.5,83.9c-0.7,6.1,3.8,11.7,9.9,12.4c6.1,0.7,11.7-3.8,12.4-9.9
	c3.3-30.3,16.6-54.6,31.8-71.4s33.3-25.3,39.9-25.6c0.9-0.1,1.7-0.2,2.6-0.5c4.2-1,7.5-4.4,8.3-8.7c0.9-4.3-0.8-8.6-4.3-11.2
	l-9.7-7.4c0.6-0.1,1.1-0.3,1.7-0.5c17.8-1.7,32.7-13.7,38.3-29.9c6.1,4.1,13.2,6.8,20.9,7.5c1.3,0.5,2.6,0.8,4,0.8
	c1.4,0,2.8-0.3,4-0.8c3-0.3,5.9-0.9,8.6-1.7c7,12.4,14.8,24.8,21,36.2c6.8,12.8,11.2,24.4,11.2,32.1c0,10.9-12.2,40.2-26.8,65.1
	c-7.3,12.4-15.1,24.2-21.7,33.3c-6.6,9.1-13.3,16.1-13.8,16.6c-2.5,1.7-4.1,4.4-4.6,7.4c-0.1,0.7-0.2,1.5-0.2,2.2v112
	c0,3,1.1,5.9,3.2,8c2.1,2.1,5,3.3,8,3.3c3,0,5.9-1.2,8-3.3c2.1-2.1,3.3-5,3.2-8V470.1c4.5-4.4,8.8-10.1,14.4-17.7
	c7.2-9.8,15.2-22.1,22.9-35.2c15.4-26.1,29.9-53.7,29.9-76.4c0-14.8-6.3-28.7-13.8-42.7c-6.8-12.7-14.8-25.3-21.5-37.2
	c7.9-7.9,12.9-18.7,12.9-30.8v-78.4c0-23.2-18.1-41.9-40.8-44c-1.3-0.5-2.6-0.8-4-0.8c-9.3,0-17.9,2.9-25.1,7.8
	c-5.8-16-20.5-27.7-38.1-29.4C400.9,84.9,399.6,84.6,398.2,84.6L398.2,84.6z M398.2,107c12.5,0,22.4,9.9,22.4,22.4v123.2
	c0,12.5-9.9,22.4-22.4,22.4c-12.5,0-22.4-9.9-22.4-22.4V129.4C375.8,116.9,385.7,107,398.2,107z M331,118.2
	c12.5,0,22.4,9.9,22.4,22.4v123.2c0,12.5-9.9,22.4-22.4,22.4c-12.5,0-22.4-9.9-22.4-22.4V140.6C308.6,128.1,318.5,118.2,331,118.2z
	 M465.4,129.4c12.5,0,22.4,9.9,22.4,22.4v78.4c0,12.5-9.9,22.4-22.4,22.4s-22.4-9.9-22.4-22.4v-78.4
	C443,139.3,452.9,129.4,465.4,129.4z M230.2,140.6c12.5,0,22.4,9.9,22.4,22.4c0,1.1,0.1,2.2,0.4,3.2c-16.6,6.6-28.4,22.8-28.4,41.6
	c0,1.5,0.3,3,0.9,4.4c0,0,0,0,0,0c1.7,16.1,11.8,29.8,25.9,36.3c-2.9,8.9-11.2,15.3-21.2,15.3c-12.5,0-22.4-9.9-22.4-22.4V163
	C207.8,150.5,217.7,140.6,230.2,140.6L230.2,140.6z M269.4,185.4h16.8v44.8h-16.8c-12.5,0-22.4-9.9-22.4-22.4
	C247,195.3,256.9,185.4,269.4,185.4L269.4,185.4z"/>
</svg>
